<svg width="64" height="64" viewBox="0 0 64 64" fill="none" xmlns="http://www.w3.org/2000/svg">
<path d="M36.8828 27.7911C36.6349 27.3614 36.0853 27.2143 35.6556 27.4622L34.1095 28.3549C33.6798 28.6031 33.5326 29.1526 33.7807 29.5822C33.9472 29.8704 34.2491 30.0316 34.5596 30.0316C34.712 30.0316 34.8666 29.9927 35.008 29.911L36.554 29.0183C36.9836 28.7702 37.1309 28.2207 36.8828 27.7911Z" fill="#FD6D3F"/>
<path d="M38.5299 21.3751C38.2819 20.9455 37.7325 20.7982 37.3027 21.0463L34.1095 22.8899C33.6798 23.138 33.5326 23.6874 33.7807 24.1171C33.9472 24.4053 34.2491 24.5665 34.5597 24.5665C34.712 24.5665 34.8666 24.5276 35.008 24.446L38.2011 22.6024C38.6308 22.3542 38.7781 21.8048 38.5299 21.3751Z" fill="#FD6D3F"/>
<path d="M43.9166 34.3947C43.6686 33.965 43.1192 33.8177 42.6894 34.0658L39.4963 35.9094C39.0665 36.1576 38.9193 36.707 39.1674 37.1367C39.3338 37.4249 39.6358 37.5861 39.9464 37.5861C40.0987 37.5861 40.2533 37.5472 40.3947 37.4655L43.5878 35.6219C44.0175 35.3738 44.1648 34.8244 43.9166 34.3947Z" fill="#FD6D3F"/>
<path d="M54.5528 47.2584L44.0333 22.5522C43.0438 20.2284 41.1024 18.4367 38.7067 17.6367C36.7507 16.9833 34.6399 17.0407 32.7406 17.7708L32.4523 14.0064C32.3492 12.6592 33.0386 11.3522 34.2087 10.6766C34.6384 10.4285 34.7857 9.87904 34.5375 9.44932C34.2894 9.01968 33.7402 8.87243 33.3103 9.12049C31.5451 10.1396 30.5051 12.1113 30.6608 14.1436L30.7471 15.272L28.7884 11.8793C28.5404 11.4498 27.9911 11.3023 27.5611 11.5505C27.1314 11.7986 26.9842 12.348 27.2323 12.7778L29.1912 16.1706L28.2571 15.5315C26.5749 14.3806 24.3474 14.2953 22.5822 15.3145C22.1525 15.5626 22.0052 16.112 22.2534 16.5418C22.5015 16.9715 23.0508 17.1188 23.4806 16.8706C24.6507 16.1951 26.1273 16.2516 27.2425 17.0144L30.3601 19.1473C28.0999 20.98 26.8502 23.8565 27.115 26.8102C27.1594 27.3044 27.5964 27.6702 28.0901 27.6248C28.5843 27.5805 28.9491 27.144 28.9047 26.6497C28.6606 23.9268 30.0301 21.2857 32.3939 19.9209C34.1361 18.915 36.2293 18.7034 38.1377 19.3409C40.0457 19.9782 41.5921 21.4053 42.3802 23.2561L44.0522 27.1829L41.2912 28.777C40.8614 29.0252 40.7142 29.5746 40.9623 30.0043C41.1288 30.2925 41.4307 30.4537 41.7413 30.4537C41.8937 30.4537 42.0482 30.4148 42.1896 30.3331L44.7614 28.8484L52.158 46.22L49.9562 47.4913C49.5265 47.7395 49.3793 48.289 49.6274 48.7186C49.7939 49.0068 50.0958 49.168 50.4063 49.168C50.5587 49.168 50.7133 49.1291 50.8547 49.0474L52.8672 47.8855L52.8999 47.9622C53.6447 49.7115 52.9647 51.7476 51.3182 52.6982C49.6716 53.6488 47.5685 53.2198 46.4259 51.7001L41.9211 45.7083L44.3454 44.3086C44.7751 44.0605 44.9224 43.5111 44.6742 43.0813C44.4261 42.6518 43.8767 42.5044 43.447 42.7525L40.8331 44.2616L39.6452 42.6816C39.3471 42.2851 38.7839 42.2054 38.3871 42.5035C37.9906 42.8017 37.9108 43.3649 38.209 43.7615L44.9894 52.7801C46.0732 54.2215 47.7419 54.9987 49.4414 54.9987C50.3888 54.9987 51.3458 54.7572 52.2164 54.2545C54.6484 52.85 55.653 49.8424 54.5528 47.2584Z" fill="#FD6D3F"/>
<path d="M36.559 36.3558C36.1418 34.4997 35.173 32.9596 33.6792 31.7782C31.2247 29.8371 28.4441 29.5143 25.6379 30.845C25.0413 31.1278 24.5064 31.4571 24.0464 31.7834C24.2334 30.8422 24.6225 29.9524 25.1982 29.1618C25.4903 28.7607 25.402 28.1988 25.0008 27.9066C24.5999 27.6145 24.0378 27.7028 23.7456 28.104C22.879 29.2941 22.3459 30.6612 22.1786 32.1044C21.6345 31.6803 20.9501 31.2215 20.156 30.845C17.3497 29.5142 14.5691 29.837 12.1147 31.7782C10.6208 32.9596 9.65201 34.4998 9.23496 36.3561C8.89805 37.8559 8.92356 39.5738 9.31088 41.4621C9.98282 44.7385 11.5575 47.7188 12.3143 49.151L12.3761 49.2681C13.9467 52.2449 15.7946 54.9997 18.6553 54.9997C20.3028 54.9997 21.2217 54.421 21.8927 53.9984C22.3466 53.7126 22.5787 53.5753 22.9006 53.5753C23.2154 53.5753 23.4475 53.7126 23.9014 53.9984C24.5724 54.421 25.4913 54.9997 27.1388 54.9997C29.9995 54.9997 31.8473 52.2449 33.4181 49.268L33.48 49.1505C34.2368 47.7182 35.8115 44.7379 36.4833 41.4616C36.8704 39.5735 36.8959 37.8556 36.559 36.3558ZM20.8512 34.5987L18.0948 37.3551C17.744 37.706 17.744 38.2749 18.0948 38.6258C18.2703 38.8012 18.5002 38.8889 18.7301 38.8889C18.96 38.8889 19.1899 38.8012 19.3654 38.6258L22.1219 35.8693C22.1708 37.3232 21.6236 38.7486 20.5559 39.8162C19.2153 41.157 17.3103 41.6781 15.4935 41.227C15.0425 39.4099 15.5636 37.5053 16.9044 36.1646C17.9719 35.0971 19.3972 34.5499 20.8512 34.5987ZM34.7229 41.1008C34.1026 44.1256 32.609 46.9527 31.891 48.3113L31.8286 48.4295C30.5832 50.7898 29.0521 53.2029 27.1386 53.2029C26.0098 53.2029 25.4507 52.8508 24.8587 52.478C24.338 52.1502 23.7479 51.7785 22.8934 51.7785C22.0459 51.7785 21.4558 52.1502 20.935 52.478C20.3431 52.8508 19.784 53.2029 18.6552 53.2029C16.7417 53.2029 15.2106 50.7899 13.9651 48.4294L13.9029 48.3114C13.185 46.9529 11.6914 44.1259 11.0709 41.101C10.3442 37.5573 11.0703 34.8948 13.2291 33.1874C15.8487 31.1157 18.3687 31.8156 20.0707 32.8226C18.4255 32.9616 16.8545 33.6731 15.6336 34.8939C13.6988 36.829 13.0415 39.6431 13.9187 42.2383C14.0084 42.5037 14.2167 42.712 14.4821 42.8017C15.2427 43.0588 16.0218 43.1841 16.7923 43.1841C18.6509 43.1841 20.4585 42.4547 21.8264 41.0868C23.5986 39.3145 24.2981 36.8049 23.7294 34.4014C24.5451 33.5501 28.4306 29.9182 32.5643 33.1876C34.7234 34.8949 35.4495 37.5573 34.7229 41.1008Z" fill="#FD6D3F"/>
<path d="M31.1735 43.5213C30.718 43.3243 30.1892 43.534 29.9923 43.9894C29.6354 44.8148 29.2055 45.7045 28.7145 46.6338L28.6515 46.7534C28.2542 47.5061 27.7292 48.4585 27.1906 49.1475C26.8851 49.5384 26.9542 50.103 27.3452 50.4086C27.5095 50.537 27.7043 50.5992 27.8979 50.5992C28.1649 50.5992 28.4291 50.4807 28.6064 50.254C29.2324 49.4531 29.8086 48.4106 30.2405 47.592L30.3034 47.4728C30.816 46.5026 31.2662 45.5705 31.6416 44.7024C31.8385 44.247 31.629 43.7181 31.1735 43.5213Z" fill="#FD6D3F"/>
</svg>
