<svg width="64" height="64" viewBox="0 0 64 64" fill="none" xmlns="http://www.w3.org/2000/svg">
<path d="M51.9688 29.9549L49.0151 27.157C48.7574 26.9129 48.4223 26.7171 48.0531 26.5846C47.957 26.4978 47.8404 26.4308 47.7071 26.3941L45.0465 25.6587C45.1507 25.4326 45.2424 25.1866 45.3148 24.9158C45.8981 22.7286 44.7083 20.4801 42.606 19.797C42.2827 19.692 41.9412 19.6386 41.5908 19.6386C40.6269 19.6386 39.7789 20.0318 39.1843 20.3542C38.8079 19.5409 38.1105 18.3362 36.7109 17.8813C36.3074 17.75 35.8879 17.6836 35.4642 17.6836C33.732 17.6836 32.1429 18.7872 31.51 20.4299C31.2514 21.1015 31.185 21.7201 31.2077 22.2598C30.9682 22.285 30.7407 22.3241 30.5405 22.3782L15.7053 26.3928C15.6802 26.3996 15.656 26.4078 15.632 26.4166C15.1989 26.5467 14.8025 26.7628 14.5074 27.0424L11.5537 29.8404C11.1194 30.2518 10.9267 30.7861 11.0252 31.3061C11.1235 31.8261 11.4981 32.2531 12.0527 32.4775L15.0708 33.6983V45.0123C15.0708 45.9624 15.7064 47.0095 16.5492 47.4483L30.458 54.686C30.8484 54.8891 31.35 55.0011 31.8704 55.0011C32.3907 55.0011 32.8924 54.8891 33.2828 54.686L47.1915 47.4482C48.0343 47.0095 48.6699 45.9623 48.6699 45.0121V33.7244L51.4698 32.5918C52.0244 32.3674 52.3989 31.9404 52.4972 31.4204C52.5957 30.9006 52.4031 30.3664 51.9688 29.9549ZM33.1131 21.0476C33.4924 20.0632 34.4373 19.4017 35.4641 19.4017C35.7071 19.4017 35.948 19.4399 36.1797 19.5152C37.084 19.809 37.5172 20.8156 37.776 21.4171C37.9511 21.8241 38.1024 22.1755 38.5289 22.3142C38.6212 22.3442 38.718 22.3594 38.8168 22.3594C38.8169 22.3594 38.8172 22.3594 38.8173 22.3594C39.1241 22.3593 39.3617 22.2249 39.7215 22.0216C40.1897 21.7567 40.8971 21.3566 41.5907 21.3566C41.7628 21.3566 41.9212 21.3809 42.0749 21.4308C43.2885 21.8252 43.9971 23.1899 43.655 24.4731C43.4808 25.1254 43.138 25.6186 42.509 26.1218C41.3946 27.0137 37.5163 28.5681 36.4769 28.6449C35.726 28.0181 33.4384 24.3905 33.0707 23.0541C32.8573 22.2787 32.87 21.6785 33.1131 21.0476ZM30.9893 24.0366C31.1464 23.9941 31.348 23.9673 31.5628 23.9543C31.9364 24.9392 32.7058 26.2993 33.366 27.3396C34.1518 28.5782 34.7103 29.2872 35.1075 29.6996L31.8704 30.6465L19.709 27.089L30.9893 24.0366ZM15.6889 28.2896C15.8656 28.1223 16.2379 27.9961 16.5551 27.9961C16.6675 27.9961 16.7436 28.0115 16.7878 28.0244L30.4398 32.018L27.2533 36.2683C27.1499 36.4065 26.9189 36.5066 26.7041 36.5066C26.6323 36.5066 26.5666 36.4953 26.5142 36.4742L12.8737 30.9562L15.6889 28.2896ZM17.3421 45.9242C17.0679 45.7817 16.7887 45.3214 16.7887 45.0123V34.3933L25.8698 38.0669C26.1287 38.1716 26.4093 38.2246 26.7037 38.2246C26.7038 38.2246 26.7038 38.2246 26.7039 38.2246C27.4626 38.2246 28.1999 37.8698 28.6279 37.2989L31.0114 34.1196V53.0373L17.3421 45.9242ZM46.952 45.0123C46.952 45.3212 46.6727 45.7815 46.3985 45.9242L32.7292 53.0374V34.525L34.8944 37.4133C35.3224 37.9843 36.0598 38.3391 36.8185 38.3391C37.1131 38.3391 37.3937 38.2861 37.6525 38.1814L46.9519 34.4195V45.0123H46.952ZM37.0084 36.5888C36.956 36.6101 36.8903 36.6212 36.8186 36.6212C36.6038 36.6212 36.3727 36.521 36.2691 36.3829L33.0828 32.1326L46.7349 28.139C46.779 28.1262 46.8551 28.1107 46.9675 28.1107C47.2847 28.1107 47.657 28.2369 47.8336 28.4043L50.6489 31.0708L37.0084 36.5888Z" fill="#FD6D3F"/>
<path d="M20.0587 19.9788C21.3957 20.7391 25.4426 21.747 27.1572 21.747C27.5543 21.747 27.8327 21.6954 28.0603 21.5795C28.2882 21.4633 28.8933 21.155 30.1416 18.2571C30.7038 16.9516 31.345 15.1922 31.4584 14.17C31.5396 13.4387 31.5683 12.3293 30.8824 11.144C30.1167 9.82163 28.7001 9 27.1854 9C26.5387 9 25.9204 9.14797 25.3472 9.44002C24.0812 10.085 23.5751 11.4064 23.3221 12.2535C22.831 12.0733 22.1711 11.8771 21.4419 11.8771C20.8593 11.8771 20.3149 12.0037 19.8241 12.2539C17.8544 13.2575 17.0307 15.6644 17.949 17.7337C18.5055 18.9873 19.4195 19.6154 20.0587 19.9788ZM20.604 13.7845C20.8545 13.657 21.1285 13.595 21.4419 13.595C22.0587 13.595 22.6718 13.8392 23.0775 14.0008C23.3826 14.1224 23.5841 14.2026 23.8221 14.2026C23.9724 14.2026 24.1144 14.169 24.2446 14.1027C24.6458 13.8982 24.7494 13.525 24.8805 13.0526C25.0554 12.4223 25.3481 11.3675 26.127 10.9707C26.4564 10.8029 26.8124 10.7179 27.1853 10.7179C28.089 10.7179 28.9359 11.2111 29.3954 12.0048C29.7335 12.589 29.8399 13.1799 29.7509 13.9807C29.5922 15.4107 27.9304 19.2896 27.2771 20.026C27.2469 20.0278 27.2075 20.0291 27.1571 20.0291C25.7698 20.0291 21.9734 19.0913 20.9077 18.4854C20.2086 18.0878 19.7934 17.6546 19.519 17.0367C18.9804 15.8228 19.4671 14.3638 20.604 13.7845Z" fill="#FD6D3F"/>
</svg>
