<svg width="96" height="96" viewBox="0 0 96 96" fill="none" xmlns="http://www.w3.org/2000/svg">
<path d="M77.2671 50.6694C76.5437 50.6694 75.9573 51.2558 75.9573 51.9792C75.9573 52.8962 75.2113 53.6422 74.2943 53.6422C73.3774 53.6422 72.6312 52.8962 72.6312 51.9792C72.6312 51.2557 72.0448 50.6694 71.3215 50.6694C70.5981 50.6694 70.0117 51.2558 70.0117 51.9792C70.0117 54.3406 71.933 56.2617 74.2943 56.2617C76.6555 56.2617 78.5768 54.3404 78.5768 51.9792C78.5768 51.2555 77.9904 50.6694 77.2671 50.6694Z" fill="#FD6D3F"/>
<path d="M89.5624 50.8835L85.8759 49.7026C85.4038 49.5513 85.0317 49.1744 84.8807 48.6943C84.1037 46.2241 82.9312 43.905 81.3958 41.8012C80.696 40.8423 79.9178 39.9267 79.0678 39.055C79.6116 36.6691 79.9073 33.9689 79.869 31.6362C79.8141 28.2989 79.1472 26.3416 77.8303 25.6519C77.121 25.2799 74.9624 24.15 63.2787 29.4983C63.0021 29.6249 62.7437 29.7808 62.5044 29.9594C61.7167 29.7477 60.9117 29.5519 60.1017 29.3761C60.0041 29.3549 59.9036 29.3361 59.8053 29.3153C60.752 27.2471 61.3049 25.0008 61.4088 22.6819C61.4411 21.959 60.8816 21.347 60.1588 21.3148C59.4379 21.2789 58.8239 21.8418 58.7917 22.5646C58.6211 26.3775 57.0394 29.965 54.3383 32.6662C52.7245 34.2801 50.8348 35.4524 48.8209 36.1906C45.3283 35.7006 41.7708 35.7006 38.2782 36.1906C36.2641 35.4524 34.3747 34.2801 32.7608 32.6662C29.8791 29.7845 28.2919 25.953 28.2919 21.8775C28.2919 17.8018 29.8791 13.9705 32.7608 11.0887C35.6426 8.2068 39.4743 6.61967 43.5496 6.61967C47.6249 6.61967 51.4566 8.2068 54.3383 11.0887C55.4964 12.2468 56.4533 13.5683 57.1826 15.0162C57.508 15.6624 58.2957 15.9225 58.9417 15.597C59.5879 15.2718 59.8478 14.4841 59.5225 13.8381C58.6676 12.1403 57.5467 10.5921 56.1909 9.23617C52.8143 5.85959 48.3248 4 43.5497 4C38.7746 4 34.2852 5.85959 30.9086 9.23617C27.532 12.6129 25.6724 17.1022 25.6724 21.8773C25.6724 26.6524 27.532 31.1419 30.9086 34.5184C31.8826 35.4924 32.9422 36.33 34.063 37.0318C34.0634 37.0318 34.0637 37.0316 34.0641 37.0316C33.2497 37.2432 32.4414 37.4809 31.6421 37.7481C30.9561 37.9775 30.5859 38.7194 30.8153 39.4057C31.0445 40.0918 31.7868 40.462 32.4727 40.2327C39.6158 37.8447 47.4837 37.8447 54.6268 40.2327C54.7646 40.2788 54.9045 40.3006 55.0422 40.3006C55.5901 40.3006 56.1009 39.9539 56.2842 39.4057C56.5136 38.7196 56.1434 37.9775 55.4573 37.7481C54.6581 37.4809 53.8498 37.243 53.0354 37.0316C53.0358 37.0316 53.0361 37.0318 53.0365 37.0318C54.1574 36.33 55.2169 35.4924 56.1909 34.5184C57.0526 33.6568 57.8132 32.7158 58.4736 31.7158C58.8346 31.7859 59.193 31.8594 59.5462 31.936C60.0166 32.0382 60.4849 32.1479 60.9489 32.263C60.9343 32.3199 60.9194 32.3767 60.9073 32.4346C60.2685 35.4659 60.31 38.1469 61.0305 40.4027C61.6781 42.4304 62.8468 44.073 64.5039 45.2854C66.457 46.7141 68.815 47.3313 70.9509 47.3313C72.5584 47.3313 74.0404 46.9815 75.1288 46.365C76.36 45.6677 77.3915 44.1984 78.208 41.9923C78.5854 42.4328 78.9431 42.884 79.2803 43.346C80.6473 45.2188 81.6909 47.2828 82.3821 49.4804C82.788 50.7712 83.7956 51.7868 85.0772 52.1976L88.7637 53.3785C89.731 53.6884 90.3809 54.5788 90.3809 55.5944V61.7072C90.3809 62.7229 89.731 63.6132 88.7637 63.9231L82.8242 65.8256C81.8739 66.1302 81.0697 66.7833 80.5598 67.6646C78.2263 71.6974 74.5576 75.0346 69.6548 77.5836C69.0885 77.8784 68.6961 78.4056 68.578 79.0303L66.6757 89.1031C66.6231 89.3807 66.38 89.5819 66.0976 89.5819H59.9123C59.6299 89.5819 59.3868 89.3805 59.3342 89.1031L58.2806 83.5363C58.0731 82.441 57.0459 81.7134 55.9402 81.8809C53.2759 82.2838 50.5305 82.4879 47.7808 82.4879C45.7351 82.4879 43.7155 82.3738 41.7779 82.1487C40.7065 82.0254 39.7084 82.7558 39.5082 83.8137L38.5069 89.1031C38.4544 89.3807 38.2113 89.5819 37.9288 89.5819H31.7436C31.4611 89.5819 31.218 89.3805 31.1647 89.0989L29.3331 79.5852C29.2151 78.9723 28.8302 78.4511 28.2763 78.1553C19.9189 73.6938 15.5016 66.2399 15.5016 56.6001C15.5016 51.7295 16.5671 47.4227 18.6686 43.7988C20.6296 40.417 23.4938 37.6208 27.1815 35.4877C27.8077 35.1254 28.0216 34.3242 27.6595 33.6979C27.2974 33.0718 26.4962 32.8582 25.8698 33.2199C18.7192 37.3564 14.4064 43.738 13.219 51.8433V51.8431C13.093 51.8317 12.9668 51.8208 12.8411 51.8078C12.864 50.9333 12.7058 50.0508 12.3612 49.1944C11.6013 47.3055 10.0404 45.9421 8.38436 45.7212C7.07936 45.5464 5.83746 46.1005 4.97561 47.2392C3.72598 48.8905 3.92971 50.1973 4.32047 51.0027C4.98018 52.362 6.67594 53.3235 9.49002 53.928C9.41268 54.0439 9.3276 54.1602 9.23443 54.2771C7.57172 56.3624 5.61281 56.8235 4.34086 56.8669C3.59625 56.8921 3 57.4899 3 58.235V58.2414C3 58.9763 3.5799 59.5757 4.31414 59.6093C4.40818 59.6137 4.50645 59.616 4.60875 59.616C6.2182 59.616 8.80131 59.0224 11.283 55.9105C11.6748 55.4194 11.994 54.9012 12.2394 54.3657C12.4866 54.3937 12.724 54.4176 12.9515 54.4387C12.9515 54.4381 12.9515 54.4378 12.9517 54.4373C12.907 55.1471 12.8822 55.8673 12.8822 56.6001C12.8822 62.0542 14.1825 66.9172 16.7466 71.0546C19.1109 74.869 22.4959 77.9923 26.811 80.3411L28.5916 89.59C28.878 91.1031 30.2036 92.2014 31.7436 92.2014H37.9288C39.4688 92.2014 40.7944 91.1031 41.0807 89.59L41.986 84.8074C43.8662 85.0065 45.8128 85.1074 47.7806 85.1074C50.4806 85.1074 53.1775 84.9193 55.8057 84.5481L56.7601 89.5904C57.0466 91.1035 58.3721 92.2016 59.912 92.2016H66.0972C67.6372 92.2016 68.9628 91.1033 69.2493 89.5897L71.1015 79.7826C76.3342 77.0157 80.2784 73.3809 82.8268 68.9765C83.0105 68.659 83.2934 68.4261 83.6231 68.3205L89.5624 66.418C91.6185 65.759 93 63.866 93 61.7069V55.5941C93 53.4351 91.6185 51.5422 89.5624 50.8835ZM77.0528 35.3168C76.5486 39.628 75.1964 43.3159 73.8376 44.0855C72.2931 44.9604 68.7274 45.1293 66.0503 43.1709C63.37 41.2103 62.4779 37.6844 63.4702 32.9746C63.4702 32.9744 63.4702 32.9744 63.4702 32.9744C63.5698 32.5014 63.9059 32.0921 64.3691 31.8801C70.9264 28.8785 74.707 27.8968 76.1115 27.8968C76.3235 27.8968 76.4813 27.9191 76.5864 27.9602C77.0083 28.4099 77.5617 30.9659 77.0528 35.3168ZM6.67752 49.8589C6.54199 49.5794 6.86191 49.0881 7.06477 48.8198C7.38627 48.3951 7.68246 48.3083 7.90623 48.3083C7.95352 48.3083 7.99764 48.3122 8.03807 48.3176C8.64029 48.398 9.48404 49.0606 9.93105 50.1718C10.0363 50.4333 10.1731 50.8666 10.2051 51.407C8.39191 51.0313 6.9832 50.4898 6.67752 49.8589Z" fill="#FD6D3F"/>
<path d="M44.8214 20.376V15.6889C46.4377 15.8044 47.0382 16.5432 47.5923 16.5432C48.285 16.5432 48.6083 15.6659 48.6083 15.2272C48.6083 14.0957 46.3915 13.6108 44.8214 13.5646V12.9409C44.8214 12.6639 44.475 12.4099 44.1287 12.4099C43.736 12.4099 43.459 12.6639 43.459 12.9409V13.6105C41.2654 13.8415 39.0718 14.996 39.0718 17.9054C39.0718 20.8609 41.3809 21.6922 43.459 22.431V27.8572C41.1037 27.6725 40.4803 26.0562 39.7183 26.0562C39.1411 26.0562 38.6562 26.8182 38.6562 27.3724C38.6562 28.5037 40.5958 30.0508 43.459 30.097V30.8128C43.459 31.0898 43.7362 31.3438 44.1287 31.3438C44.4751 31.3438 44.8214 31.0898 44.8214 30.8128V30.0278C47.3152 29.6813 49.0238 28.1112 49.0238 25.2711C49.0238 22.131 46.8303 21.1148 44.8214 20.376ZM43.5975 19.9374C42.3737 19.4756 41.3809 18.9908 41.3809 17.6747C41.3809 16.474 42.3044 15.8967 43.5975 15.7352V19.9374ZM44.6827 27.811V22.939C45.8141 23.4238 46.7146 24.0704 46.7146 25.525C46.7146 26.8414 45.9296 27.5802 44.6827 27.811Z" fill="#FD6D3F"/>
</svg>
