<svg width="64" height="64" viewBox="0 0 64 64" fill="none" xmlns="http://www.w3.org/2000/svg">
<path d="M53.1688 16.6871L53.7481 16.1078C54.0837 15.7723 54.0837 15.2281 53.7481 14.8925C53.4125 14.557 52.8684 14.557 52.5327 14.8925L51.9534 15.4717L51.3745 14.8928C51.2133 14.7317 50.9947 14.6411 50.7668 14.6411H49.8216L45.4322 10.2517C45.271 10.0906 45.0525 10 44.8246 10H13.0949C11.3884 10 10 11.3883 10 13.0949V29.1995C10 30.906 11.3884 32.2944 13.0949 32.2944H20.5817L15.5471 37.3291C14.9626 37.9136 14.6407 38.6908 14.6407 39.5175C14.6407 40.3442 14.9626 41.1214 15.5471 41.706L26.9347 53.0936C27.5193 53.6782 28.2965 54.0001 29.1232 54.0001C29.9499 54.0001 30.7271 53.6782 31.3116 53.0936L39.8406 44.5648C40.1763 44.2292 40.1763 43.685 39.8406 43.3494C39.505 43.014 38.9609 43.0139 38.6253 43.3494L30.0962 51.8782C29.8364 52.1382 29.4907 52.2813 29.1232 52.2813C28.7556 52.2813 28.41 52.1382 28.1501 51.8782L16.7624 40.4906C16.5026 40.2307 16.3594 39.8851 16.3594 39.5175C16.3594 39.1499 16.5026 38.8044 16.7624 38.5445L38.9469 16.36H50.4109L50.7382 16.6872L48.751 18.6744C48.4144 18.513 48.0377 18.4225 47.6402 18.4225C46.2186 18.4225 45.0621 19.5791 45.0621 21.0006C45.0621 22.4222 46.2186 23.5787 47.6402 23.5787C49.0617 23.5787 50.2183 22.4222 50.2183 21.0006C50.2183 20.6031 50.1277 20.2264 49.9663 19.8898L51.9535 17.9026L52.2808 18.2299V29.6938L44.0941 37.8805C43.7585 38.2161 43.7585 38.7603 44.0941 39.0959C44.4297 39.4314 44.9738 39.4314 45.3095 39.0959L53.7479 30.6576C53.909 30.4964 53.9996 30.2778 53.9996 30.0499V17.8738C53.9996 17.6459 53.909 17.4273 53.7479 17.2661L53.1688 16.6871ZM25.4324 25.42C24.9584 25.42 24.5728 25.0344 24.5728 24.5604C24.5728 24.0863 24.9584 23.7007 25.4324 23.7007C25.9064 23.7007 26.292 24.0863 26.292 24.5604C26.292 25.0343 25.9064 25.42 25.4324 25.42ZM38.591 14.6412C38.3631 14.6412 38.1445 14.7317 37.9833 14.8929L27.9894 24.8867C28.003 24.7797 28.0108 24.6709 28.0108 24.5603C28.0108 23.1386 26.8542 21.9819 25.4325 21.9819C24.0108 21.9819 22.8541 23.1386 22.8541 24.5603C22.8541 25.982 24.0107 27.1387 25.4325 27.1387C25.5431 27.1387 25.6519 27.1308 25.7589 27.1173L22.3005 30.5756H13.0949C12.3361 30.5756 11.7187 29.9582 11.7187 29.1994V13.0949C11.7187 12.3361 12.3361 11.7187 13.0949 11.7187H44.4685L47.391 14.6412H38.591ZM47.6402 21.8598C47.1663 21.8598 46.7808 21.4743 46.7808 21.0005C46.7808 20.5266 47.1663 20.1411 47.6402 20.1411C47.8363 20.1411 48.0168 20.2079 48.1616 20.3189C48.1843 20.3486 48.2086 20.3777 48.2357 20.4048C48.2629 20.432 48.2919 20.4562 48.3217 20.479C48.4327 20.6238 48.4995 20.8043 48.4995 21.0004C48.4995 21.4743 48.114 21.8598 47.6402 21.8598Z" fill="#FD6D3F"/>
<path d="M38.5801 35.4237C38.808 35.4237 39.0266 35.3332 39.1877 35.172L41.1322 33.2275C41.4678 32.8919 41.4678 32.3477 41.1322 32.0121C40.7966 31.6766 40.2525 31.6766 39.9169 32.0121L38.5801 33.349L34.3264 29.0954C33.9909 28.7599 33.4466 28.7599 33.1111 29.0954C32.7755 29.431 32.7755 29.9751 33.1111 30.3108L37.9724 35.172C38.1336 35.3332 38.3522 35.4237 38.5801 35.4237Z" fill="#FD6D3F"/>
<path d="M45.2682 27.8786C44.9326 27.5431 44.3885 27.5431 44.0528 27.8786L42.959 28.9724L41.7437 27.7571L42.8375 26.6633C43.1731 26.3277 43.1731 25.7836 42.8375 25.4479C42.5019 25.1124 41.9577 25.1124 41.6221 25.4479L40.5283 26.5417L39.313 25.3264L40.4068 24.2326C40.7423 23.897 40.7424 23.3529 40.4068 23.0172C40.0712 22.6818 39.527 22.6817 39.1914 23.0172L37.49 24.7187C37.3289 24.8798 37.2383 25.0984 37.2383 25.3263C37.2383 25.5542 37.3289 25.7728 37.49 25.934L42.3513 30.7952C42.5191 30.963 42.7391 31.0469 42.959 31.0469C43.1789 31.0469 43.3989 30.963 43.5666 30.7952L45.2681 29.0938C45.6038 28.7583 45.6038 28.2141 45.2682 27.8786Z" fill="#FD6D3F"/>
<path d="M35.7621 37.76C36.1848 37.9755 36.7024 37.8073 36.9179 37.3844C37.1334 36.9615 36.9652 36.444 36.5422 36.2286L30.101 32.9472C29.7693 32.7782 29.3665 32.842 29.1033 33.1052C28.8401 33.3685 28.7762 33.7713 28.9452 34.103L32.2266 40.5442C32.3784 40.8422 32.68 41.0137 32.993 41.0136C33.1243 41.0136 33.2575 40.9835 33.3824 40.9198C33.8053 40.7043 33.9735 40.1869 33.7581 39.764L33.4946 39.2467L35.2449 37.4964L35.7621 37.76ZM32.6742 37.6365L31.677 35.6789L33.6346 36.6762L32.6742 37.6365Z" fill="#FD6D3F"/>
<path d="M27.5249 44.4069C27.1893 44.7425 27.1893 45.2867 27.5249 45.6223C27.6928 45.7901 27.9127 45.874 28.1326 45.874C28.3525 45.874 28.5725 45.7901 28.7402 45.6223L29.9556 44.407C30.9608 43.4018 30.9608 41.7663 29.9556 40.761C29.0002 39.8055 27.4758 39.759 26.4639 40.6197C26.4324 40.6435 26.4018 40.6688 26.3732 40.6975L26.3096 40.761C26.1473 40.9233 25.9315 41.0127 25.702 41.0127C25.4724 41.0127 25.2566 40.9233 25.0943 40.761C24.7592 40.4259 24.7592 39.8807 25.0943 39.5456L26.3096 38.3303C26.6452 37.9947 26.6453 37.4505 26.3096 37.1149C25.974 36.7795 25.4299 36.7794 25.0943 37.1149L23.8789 38.3302C22.8737 39.3354 22.8737 40.971 23.8789 41.9763C24.3659 42.4632 25.0133 42.7313 25.7019 42.7313C26.3895 42.7313 27.0361 42.4639 27.523 41.978C27.5236 41.9774 27.5243 41.9769 27.5249 41.9763C27.8599 41.6411 28.4052 41.6411 28.7402 41.9763C28.9026 42.1386 28.9919 42.3543 28.9919 42.5839C28.9919 42.8135 28.9026 43.0293 28.7402 43.1915L27.5249 44.4069Z" fill="#FD6D3F"/>
<path d="M24.7233 15.5486C24.31 15.3154 23.7858 15.4612 23.5525 15.8745L18.0096 25.6931C17.7763 26.1065 17.9221 26.6306 18.3355 26.8639C18.469 26.9393 18.614 26.9751 18.7572 26.9751C19.0571 26.9751 19.3483 26.8178 19.5063 26.538L25.0492 16.7194C25.2825 16.3061 25.1367 15.7819 24.7233 15.5486Z" fill="#FD6D3F"/>
<path d="M20.7584 17.7346C20.7584 16.3129 19.6018 15.1562 18.18 15.1562C16.7583 15.1562 15.6016 16.3129 15.6016 17.7346C15.6016 19.1564 16.7582 20.3131 18.1799 20.3131C19.6017 20.3131 20.7584 19.1564 20.7584 17.7346ZM17.3203 17.7346C17.3203 17.2606 17.7059 16.875 18.1799 16.875C18.654 16.875 19.0396 17.2606 19.0396 17.7346C19.0396 18.2087 18.654 18.5943 18.1799 18.5943C17.7059 18.5943 17.3203 18.2087 17.3203 17.7346Z" fill="#FD6D3F"/>
</svg>
